<svg width="14" height="14" viewBox="0 0 14 14" fill="none" xmlns="http://www.w3.org/2000/svg">
    <path fill-rule="evenodd" clip-rule="evenodd"
        d="M9.58515 9.52455C10.0798 9.47338 10.4551 9.04693 10.4381 8.53519C10.421 8.02345 9.99455 7.61406 9.48281 7.61406H9.44869C8.91989 7.63111 8.5105 8.07462 8.52756 8.60342C8.54462 8.85929 8.64697 9.08104 8.80049 9.23457C8.22052 10.3775 7.3335 11.2133 6.00297 11.9127C5.0989 12.3903 4.16071 12.5609 3.22252 12.4415C2.45491 12.3391 1.85788 11.998 1.48261 11.435C0.936749 10.5992 0.885575 9.69513 1.34614 8.79106C1.67024 8.14285 2.18198 7.66523 2.50609 7.42642C2.43785 7.20466 2.33551 6.82939 2.28433 6.55646C-0.189079 8.34755 0.066791 10.7698 0.817343 11.9127C1.38026 12.7656 2.52314 13.2944 3.78544 13.2944C4.1266 13.2944 4.46775 13.2603 4.80892 13.175C6.99234 12.7485 8.64697 11.4521 9.58515 9.52455Z"
        fill="#AB47BC" />
    <path fill-rule="evenodd" clip-rule="evenodd"
        d="M12.5874 7.40936C11.291 5.8912 9.38046 5.05536 7.19704 5.05536H6.92411C6.77059 4.74831 6.44648 4.54362 6.08827 4.54362H6.05415C5.52535 4.56067 5.11596 5.00418 5.13302 5.53298C5.15008 6.04472 5.57653 6.45411 6.08827 6.45411H6.12238C6.49766 6.43705 6.82176 6.19824 6.95822 5.87414H7.26527C8.56168 5.87414 9.78985 6.24942 10.8986 6.98291C11.7515 7.54582 12.3656 8.27932 12.7068 9.16633C12.9968 9.88277 12.9797 10.5821 12.6727 11.1792C12.195 12.0833 11.3933 12.5779 10.3357 12.5779C9.65339 12.5779 9.00518 12.3732 8.66402 12.2197C8.47639 12.3903 8.13523 12.6632 7.89641 12.8338C8.62991 13.175 9.38046 13.3626 10.0969 13.3626C11.7345 13.3626 12.9456 12.4585 13.4061 11.5545C13.9008 10.5651 13.8667 8.85929 12.5874 7.40936Z"
        fill="#AB47BC" />
    <path fill-rule="evenodd" clip-rule="evenodd"
        d="M3.9219 9.81454C3.93896 10.3263 4.36541 10.7357 4.87715 10.7357H4.91126C5.44006 10.7186 5.84945 10.2751 5.83239 9.7463C5.81534 9.23456 5.38889 8.82517 4.87715 8.82517H4.84303C4.80891 8.82517 4.75774 8.82517 4.72362 8.84223C4.02425 7.68229 3.73426 6.42 3.83661 5.05536C3.90484 4.03188 4.246 3.14486 4.84303 2.41137C5.33771 1.78022 6.29296 1.47317 6.94116 1.45612C8.74931 1.422 9.51692 3.67366 9.5681 4.57773C9.78985 4.62891 10.1651 4.74831 10.421 4.8336C10.2163 2.07021 8.5105 0.637333 6.87293 0.637333C5.33771 0.637333 3.9219 1.7461 3.35898 3.38367C2.57432 5.56709 3.08606 7.66523 4.0413 9.31985C3.95601 9.43926 3.90484 9.6269 3.9219 9.81454Z"
        fill="#AB47BC" />
</svg>
    